<svg width="80" height="80" viewBox="0 0 80 80" fill="none" xmlns="http://www.w3.org/2000/svg">
<path d="M16.5625 80H54.0625C54.9253 80 55.625 79.3005 55.625 78.4375V29.6875C55.625 24.1872 51.5431 19.6241 46.25 18.8634V14.0625C46.25 11.4778 44.1472 9.375 41.5625 9.375H40V3.125H57.1875C59.7722 3.125 61.875 5.22781 61.875 7.8125C61.875 8.67547 62.5747 9.375 63.4375 9.375C64.3003 9.375 65 8.67547 65 7.8125C65 3.50469 61.4953 0 57.1875 0H22.8125C21.9497 0 21.25 0.699531 21.25 1.5625C21.25 2.42547 21.9497 3.125 22.8125 3.125H30.625V9.375H29.0625C26.4778 9.375 24.375 11.4778 24.375 14.0625V18.8634C19.0819 19.6242 15 24.1872 15 29.6875V78.4375C15 79.3005 15.6997 80 16.5625 80ZM52.5 31.25V67.5H18.125V31.25H52.5ZM18.125 76.875V70.625H52.5V76.875H18.125ZM33.75 3.125H36.875V9.375H33.75V3.125ZM29.0625 12.5H41.5625C42.4241 12.5 43.125 13.2009 43.125 14.0625V18.75H27.5V14.0625C27.5 13.2009 28.2009 12.5 29.0625 12.5ZM25.9375 21.875H44.6875C48.4603 21.875 51.6169 24.5633 52.3428 28.125H18.2822C19.0081 24.5633 22.1647 21.875 25.9375 21.875Z" fill="black"/>
<path d="M35.3125 60.3125C39.6203 60.3125 43.125 56.8078 43.125 52.5C43.125 48.7509 37.688 40.6898 36.5981 39.1119C36.3062 38.6897 35.8258 38.4375 35.3125 38.4375C34.7992 38.4375 34.3188 38.6897 34.0269 39.1119C32.937 40.6898 27.5 48.7509 27.5 52.5C27.5 56.8078 31.0047 60.3125 35.3125 60.3125Z" fill="black"/>
</svg>
