<svg width="80" height="80" viewBox="0 0 80 80" fill="none" xmlns="http://www.w3.org/2000/svg">
<path d="M73.1922 18.1984C69.9186 13.8342 62.6123 12.6278 53.0536 14.8369C52.8486 14.3455 52.6369 13.8628 52.4186 13.3927C53.1927 12.5565 53.6579 11.4808 53.7369 10.344C53.8159 9.20719 53.504 8.07753 52.8529 7.1423C52.2018 6.20706 51.2507 5.52242 50.1572 5.20187C49.0636 4.88132 47.8934 4.94411 46.8405 5.37984C44.6969 3.47031 42.3997 2.5 40 2.5C37.2439 2.5 34.6273 3.77141 32.2231 6.27891C30.2091 8.37922 28.4375 11.2563 26.9461 14.8367C17.3873 12.628 10.0812 13.8344 6.80797 18.1983C3.08469 23.1614 5.21469 31.2644 12.4903 40C12.0934 40.4766 11.7092 40.9542 11.3377 41.4328C10.2823 41.1388 9.15964 41.1997 8.14235 41.6062C7.12507 42.0128 6.26959 42.7424 5.7076 43.6828C5.14562 44.6231 4.90828 45.7222 5.03211 46.8106C5.15595 47.8991 5.6341 48.9168 6.39297 49.7069C4.39922 54.6047 4.53703 58.7725 6.80781 61.8006C9.01 64.7364 13.0356 66.2438 18.3453 66.2436C20.9288 66.2436 23.8173 65.8853 26.9461 65.1622C28.4372 68.7427 30.2091 71.6198 32.2231 73.7202C34.6273 76.2286 37.2439 77.5 40 77.5C42.7561 77.5 45.3727 76.2286 47.7769 73.7211C49.7906 71.6209 51.5623 68.7444 53.0534 65.1644C53.7221 65.3189 54.3824 65.457 55.0345 65.5788C55.1725 66.7555 55.7239 67.8451 56.5904 68.6532C57.4569 69.4613 58.5822 69.9354 59.7657 69.9911C60.9493 70.0467 62.1141 69.6802 63.0526 68.957C63.9911 68.2337 64.6423 67.2007 64.89 66.042C68.6244 65.5348 71.4837 64.0812 73.192 61.8017C76.9152 56.8388 74.7858 48.7358 67.51 40C74.7855 31.2641 76.9152 23.1612 73.1922 18.1984ZM71.1922 19.6984C74.0884 23.5592 72.0322 30.5328 65.8436 38.0881C63.0865 35.086 60.0815 32.3214 56.8605 29.8234C56.2733 25.2745 55.2784 20.9502 53.9578 17.1958C62.2247 15.352 68.6133 16.2603 71.1922 19.6986V19.6984ZM51.5203 62.1961C48.5805 61.3758 45.7025 60.348 42.9081 59.1203C45.612 57.7246 48.2421 56.1905 50.7881 54.5242C51.8857 53.8064 52.9632 53.0673 54.0206 52.307C53.4817 55.6709 52.6452 58.9803 51.5209 62.1963L51.5203 62.1961ZM28.4784 62.1961C27.3541 58.9802 26.5175 55.6708 25.9784 52.3069C27.0334 53.0647 28.111 53.8038 29.2111 54.5241C31.7571 56.1905 34.3872 57.7246 37.0911 59.1203C34.2968 60.348 31.4189 61.3759 28.4791 62.1963L28.4784 62.1961ZM28.4784 17.8036C31.4183 18.6239 34.2962 19.6517 37.0906 20.8794C34.3868 22.2751 31.7566 23.8092 29.2106 25.4755C28.1129 26.1933 27.0354 26.9323 25.9781 27.6927C26.5174 24.3288 27.3544 21.0195 28.4791 17.8038L28.4784 17.8036ZM30.5788 52.4317C28.8263 51.2858 27.1194 50.0788 25.4956 48.8398C24.834 42.9651 24.834 37.0346 25.4956 31.1598C27.1194 29.9209 28.8264 28.7138 30.5788 27.5678C33.6025 25.5875 36.7493 23.8016 40 22.2213C43.2506 23.8017 46.3971 25.5876 49.4206 27.5681C51.1731 28.7141 52.88 29.9211 54.5037 31.16C54.8356 34.095 55.0013 37.0463 55 40C55.0013 42.9537 54.8357 45.905 54.5037 48.84C52.88 50.0789 51.173 51.2861 49.4206 52.432C46.3971 54.4124 43.2505 56.1983 40 57.7787C36.7494 56.1983 33.6029 54.4124 30.5794 52.4319L30.5788 52.4317ZM22.7717 46.6678C20.2912 44.6144 17.9609 42.3861 15.7986 40C17.9613 37.6137 20.2919 35.3851 22.7725 33.3313C22.5928 35.5255 22.5 37.7575 22.5 40C22.5 42.2425 22.5928 44.4737 22.7723 46.668L22.7717 46.6678ZM51.5209 17.8038C52.6453 21.0197 53.4819 24.3291 54.0209 27.693C52.9659 26.9352 51.8884 26.1961 50.7883 25.4758C48.2423 23.8094 45.6121 22.2753 42.9083 20.8795C45.7028 19.6519 48.5809 18.6241 51.5209 17.8038ZM57.2277 33.332C59.7084 35.3854 62.0389 37.6138 64.2014 40C62.0387 42.3863 59.7081 44.6149 57.2275 46.6687C57.4072 44.4745 57.5 42.2425 57.5 40C57.5 37.7575 57.4072 35.5262 57.2277 33.332ZM51.25 10C51.25 10.4945 51.1034 10.9778 50.8287 11.3889C50.554 11.8 50.1635 12.1205 49.7067 12.3097C49.2499 12.4989 48.7472 12.5484 48.2623 12.452C47.7773 12.3555 47.3319 12.1174 46.9822 11.7678C46.6326 11.4181 46.3945 10.9727 46.298 10.4877C46.2016 10.0028 46.2511 9.50011 46.4403 9.04329C46.6295 8.58648 46.9499 8.19603 47.3611 7.92133C47.7722 7.64662 48.2555 7.5 48.75 7.5C49.4128 7.50079 50.0482 7.76443 50.5169 8.2331C50.9856 8.70177 51.2492 9.3372 51.25 10ZM40 5C41.6356 5 43.2486 5.64969 44.8081 6.92953C44.1501 7.77301 43.7801 8.80542 43.7526 9.87487C43.7252 10.9443 44.0416 11.9944 44.6555 12.8705C45.2694 13.7467 46.1483 14.4027 47.1628 14.742C48.1774 15.0814 49.2741 15.0861 50.2916 14.7556C50.3972 14.9889 50.5014 15.2248 50.6041 15.4634C46.9666 16.5012 43.4201 17.8347 40 19.4505C36.5793 17.8343 33.0323 16.5006 29.3942 15.4627C32.2441 8.79312 36.0678 5 40 5ZM8.80781 19.6984C11.3867 16.2609 17.775 15.3519 26.0422 17.1959C24.7219 20.9497 23.727 25.2731 23.1398 29.822C19.919 32.3206 16.9139 35.0855 14.1564 38.0877C7.96781 30.5331 5.91141 23.5594 8.80781 19.6984ZM10 43.75C10.4945 43.75 10.9778 43.8966 11.3889 44.1713C11.8 44.446 12.1205 44.8365 12.3097 45.2933C12.4989 45.7501 12.5484 46.2528 12.452 46.7377C12.3555 47.2227 12.1174 47.6681 11.7678 48.0178C11.4181 48.3674 10.9727 48.6055 10.4877 48.702C10.0028 48.7984 9.50011 48.7489 9.04329 48.5597C8.58648 48.3705 8.19603 48.05 7.92133 47.6389C7.64662 47.2278 7.5 46.7445 7.5 46.25C7.50078 45.5872 7.76443 44.9518 8.2331 44.4831C8.70177 44.0144 9.3372 43.7508 10 43.75ZM8.80797 60.3017C6.78344 57.6014 7.43297 53.958 8.55516 51.0361C9.62306 51.3591 10.7683 51.3154 11.8086 50.9121C12.8488 50.5088 13.7242 49.769 14.2952 48.8106C14.8663 47.8521 15.1003 46.7302 14.9598 45.6234C14.8194 44.5166 14.3127 43.4886 13.5203 42.7031C13.7276 42.4391 13.9395 42.1751 14.1561 41.9112C16.9133 44.9137 19.9184 47.6787 23.1395 50.1769C23.7267 54.7258 24.7216 59.0502 26.0422 62.8045C17.7755 64.6481 11.3869 63.7397 8.80797 60.3017ZM40 75C36.0678 75 32.2441 71.2069 29.3942 64.5372C33.0323 63.4994 36.5794 62.1657 40 60.5495C43.4207 62.1656 46.9678 63.4993 50.6058 64.5373C47.7559 71.2069 43.9322 75 40 75ZM60 67.5C59.5055 67.5 59.0222 67.3534 58.6111 67.0787C58.1999 66.804 57.8795 66.4135 57.6903 65.9567C57.5011 65.4999 57.4516 64.9972 57.548 64.5123C57.6445 64.0273 57.8826 63.5819 58.2322 63.2322C58.5819 62.8826 59.0273 62.6445 59.5123 62.548C59.9972 62.4516 60.4999 62.5011 60.9567 62.6903C61.4135 62.8795 61.804 63.2 62.0787 63.6111C62.3534 64.0222 62.5 64.5055 62.5 65C62.4992 65.6628 62.2356 66.2982 61.7669 66.7669C61.2982 67.2356 60.6628 67.4992 60 67.5ZM71.1917 60.302C69.9261 61.9911 67.7219 63.0967 64.7803 63.5342C64.478 62.5493 63.8788 61.6817 63.0646 61.0503C62.2505 60.4189 61.2611 60.0544 60.2319 60.0067C59.2027 59.959 58.1839 60.2304 57.3148 60.7838C56.4458 61.3372 55.7689 62.1455 55.3767 63.0983C54.9095 63.0095 54.4366 62.9114 53.958 62.8037C55.2783 59.0502 56.273 54.7267 56.8602 50.178C60.081 47.6795 63.0861 44.9145 65.8436 41.9123C72.0322 49.4669 74.0884 56.4406 71.1917 60.302Z" fill="black"/>
<path d="M40 30C38.0222 30 36.0888 30.5865 34.4443 31.6853C32.7998 32.7841 31.5181 34.3459 30.7612 36.1732C30.0043 38.0004 29.8063 40.0111 30.1922 41.9509C30.578 43.8907 31.5304 45.6725 32.9289 47.0711C34.3275 48.4696 36.1093 49.422 38.0491 49.8079C39.9889 50.1937 41.9996 49.9957 43.8268 49.2388C45.6541 48.4819 47.2159 47.2002 48.3147 45.5557C49.4135 43.9112 50 41.9778 50 40C49.997 37.3487 48.9425 34.8069 47.0678 32.9322C45.1931 31.0575 42.6513 30.003 40 30ZM40 47.5C38.5166 47.5 37.0666 47.0601 35.8332 46.236C34.5999 45.4119 33.6386 44.2406 33.0709 42.8701C32.5033 41.4997 32.3547 39.9917 32.6441 38.5368C32.9335 37.082 33.6478 35.7456 34.6967 34.6967C35.7456 33.6478 37.082 32.9335 38.5368 32.6441C39.9917 32.3547 41.4997 32.5032 42.8701 33.0709C44.2406 33.6386 45.4119 34.5999 46.236 35.8332C47.0601 37.0666 47.5 38.5166 47.5 40C47.4977 41.9884 46.7068 43.8948 45.3008 45.3008C43.8948 46.7068 41.9884 47.4977 40 47.5Z" fill="black"/>
</svg>
