<svg width="80" height="80" viewBox="0 0 80 80" fill="none" xmlns="http://www.w3.org/2000/svg">
<path d="M77.656 21.7137H72.7477C72.259 18.9531 71.1209 16.2862 69.332 13.9619L72.7098 10.5841C73.6252 9.66864 73.6252 8.18457 72.7098 7.26916C71.7946 6.35375 70.3104 6.35375 69.3949 7.26916L66.0147 10.6494C63.7524 8.91294 61.1669 7.79141 58.4867 7.28494V2.3755C58.4867 1.08098 57.4372 0.0314941 56.1427 0.0314941C54.8482 0.0314941 53.7987 1.08098 53.7987 2.3755V7.02195C50.752 7.24978 47.7537 8.25396 45.1268 10.0331L41.6475 6.55377C40.7323 5.63836 39.248 5.63836 38.3326 6.55377C37.4172 7.46918 37.4172 8.95325 38.3326 9.86866L41.5839 13.12L34.5672 20.1367L31.2931 16.8626C30.3779 15.9471 28.8936 15.9471 27.9782 16.8626C27.0628 17.778 27.0628 19.262 27.9782 20.1775L31.2523 23.4516L24.2356 30.4683L20.9615 27.1942C20.0463 26.2787 18.562 26.2787 17.6466 27.1942C16.7312 28.1096 16.7312 29.5936 17.6466 30.5091L20.9207 33.7832L13.904 40.7999L10.6296 37.5254C9.71434 36.61 8.23012 36.61 7.31471 37.5254C6.39929 38.4409 6.39929 39.9249 7.31471 40.8403L10.6918 44.2174C8.69861 46.7963 7.50863 49.7991 7.12 52.8848H2.34401C1.04949 52.8848 0 53.9343 0 55.2288C0 56.5233 1.04949 57.5728 2.34401 57.5728H7.14469C7.55489 60.5784 8.72752 63.4988 10.6634 66.0175L7.26017 69.4203C6.34476 70.3358 6.34476 71.8198 7.26017 72.7352C7.71788 73.1929 8.31779 73.4219 8.91754 73.4219C9.51729 73.4219 10.1174 73.1931 10.5749 72.7352L13.9779 69.3322C16.5332 71.2963 19.502 72.4744 22.5537 72.8681V77.6244C22.5537 78.9189 23.6032 79.9684 24.8977 79.9684C26.1922 79.9684 27.2417 78.9189 27.2417 77.6244V72.8579C30.4385 72.4314 33.541 71.1433 36.1691 68.9919L39.5037 72.3264C39.9614 72.7841 40.5613 73.0131 41.1611 73.0131C41.7608 73.0131 42.3609 72.7843 42.8184 72.3264C43.7338 71.411 43.7338 69.927 42.8184 69.0116L39.5468 65.7399L46.4463 58.8404L49.7179 62.112C50.1756 62.5697 50.7756 62.7987 51.3753 62.7987C51.9751 62.7987 52.5751 62.5699 53.0327 62.112C53.9481 61.1966 53.9481 59.7126 53.0327 58.7971L49.7611 55.5255L56.6606 48.626L59.9322 51.8976C60.3899 52.3554 60.9898 52.5843 61.5896 52.5843C62.1893 52.5843 62.7894 52.3555 63.2469 51.8976C64.1623 50.9822 64.1623 49.4982 63.2469 48.5827L59.9753 45.3111L66.8748 38.4116L70.1464 41.6832C70.6041 42.1409 71.204 42.3699 71.8038 42.3699C72.4035 42.3699 73.0036 42.1411 73.4612 41.6832C74.3766 40.7678 74.3766 39.2838 73.4612 38.3683L69.9614 34.8686C71.7005 32.3008 72.6986 29.3778 72.9553 26.4017H77.6549C78.9494 26.4017 79.9989 25.3522 79.9989 24.0577C79.9989 22.7632 78.9505 21.7137 77.656 21.7137ZM55.052 43.6055C55.0354 43.6211 55.0176 43.635 55.0013 43.6513C54.9851 43.6675 54.9713 43.6852 54.9557 43.7017L44.8373 53.82C44.8207 53.8357 44.803 53.8494 44.7869 53.8655C44.7708 53.8818 44.7571 53.8993 44.7415 53.9158L34.6225 64.0348C34.6061 64.0502 34.5886 64.064 34.5725 64.0801C34.5564 64.0962 34.5428 64.1137 34.5274 64.1301L34.1809 64.4765C31.6911 66.9663 28.4448 68.2463 25.1749 68.324C25.084 68.3132 24.992 68.3062 24.898 68.3062C24.8005 68.3062 24.705 68.314 24.6107 68.3255C21.3181 68.264 18.0445 66.9834 15.5375 64.4765L15.5189 64.4579C10.3789 59.318 10.3789 50.9546 15.5189 45.8146L45.8216 15.5119C48.3915 12.942 51.7674 11.657 55.1432 11.657C55.3951 11.657 55.6469 11.6665 55.8985 11.6807C55.906 11.6815 55.9135 11.6817 55.921 11.6823C59.0191 11.8637 62.0646 13.1289 64.4327 15.4812C64.4435 15.4922 64.4525 15.5043 64.4636 15.5154C64.4764 15.5282 64.4905 15.539 64.5036 15.5515C69.6229 20.6931 69.6167 29.0406 64.4836 34.1737L55.052 43.6055Z" fill="black"/>
<path d="M40.2696 47.7258C38.1946 47.7258 36.5065 46.0379 36.5065 43.9628C36.5065 42.6683 35.457 41.6188 34.1625 41.6188C32.868 41.6188 31.8185 42.6683 31.8185 43.9628C31.8185 48.6227 35.6095 52.4139 40.2696 52.4139C41.5641 52.4139 42.6136 51.3644 42.6136 50.0699C42.6136 48.7753 41.5641 47.7258 40.2696 47.7258Z" fill="black"/>
<path d="M59.6116 21.2988C58.6963 20.3835 57.2121 20.3834 56.2967 21.2988C54.7004 22.8949 53.8214 25.0172 53.8214 27.2746C53.8214 29.5319 54.7004 31.6542 56.2967 33.2504C56.7544 33.7081 57.3543 33.9369 57.954 33.9369C58.5538 33.9369 59.1539 33.7081 59.6116 33.2503C60.5268 32.3349 60.5268 30.8508 59.6116 29.9354C58.9009 29.2247 58.5094 28.2797 58.5094 27.2746C58.5094 26.2695 58.9009 25.3246 59.6116 24.6139C60.527 23.6983 60.527 22.2142 59.6116 21.2988Z" fill="black"/>
<path d="M21.4151 50.4032C22.8823 51.8704 22.8823 54.2577 21.4151 55.7249C20.4997 56.6403 20.4997 58.1243 21.4151 59.0398C22.3305 59.9552 23.8146 59.9552 24.73 59.0398C28.025 55.7447 28.025 50.3833 24.73 47.0883C23.8146 46.1729 22.3305 46.1729 21.4151 47.0883C20.4997 48.0037 20.4997 49.4879 21.4151 50.4032Z" fill="black"/>
<path d="M38.937 29.2403C40.4042 30.7075 40.4042 33.0948 38.937 34.562C38.0216 35.4774 38.0216 36.9615 38.937 37.8769C39.8525 38.7923 41.3365 38.7923 42.2519 37.8769C45.547 34.5819 45.547 29.2205 42.2519 25.9255C41.3365 25.01 39.8525 25.01 38.937 25.9255C38.0216 26.8407 38.0216 28.3249 38.937 29.2403Z" fill="black"/>
</svg>
