<svg width="80" height="80" viewBox="0 0 80 80" fill="none" xmlns="http://www.w3.org/2000/svg">
<g clip-path="url(#clip0)">
<path d="M77.0859 39.3169C76.1398 39.1315 75.1786 39.3254 74.3786 39.8629C73.716 40.3081 73.2297 40.9452 72.9769 41.6882L68.8657 39.8929C68.8741 39.6116 68.8783 39.3343 68.8783 39.0642C68.8783 36.647 68.5757 34.2469 67.9786 31.9218L69.8227 30.6708C70.9916 31.6946 72.6905 32.0007 74.1779 31.3546C76.1792 30.4848 77.1379 28.1688 76.36 26.0818L75.4919 23.752C74.7049 21.6395 72.4408 20.5265 70.338 21.2166C69.2738 21.566 68.4174 22.3116 67.9267 23.3158C67.6476 23.8869 67.5068 24.4996 67.5065 25.1152L65.4144 25.4073C65.1277 24.8819 64.8146 24.3494 64.4801 23.819C64.1343 23.2704 63.4089 23.1061 62.8607 23.4518C62.3119 23.7977 62.1475 24.5227 62.4934 25.0713C62.8881 25.6974 63.2497 26.3248 63.5683 26.9363C63.8882 27.5494 64.5627 27.8972 65.2453 27.802L69.0181 27.2753C69.3682 27.2264 69.6778 27.0224 69.8606 26.72C70.0435 26.4175 70.0804 26.0486 69.9611 25.7159C69.7991 25.2644 69.826 24.7783 70.0366 24.3471C70.2467 23.9172 70.6138 23.5979 71.0705 23.4479C71.9564 23.1573 72.952 23.6616 73.2912 24.5722L74.1594 26.902C74.4954 27.8037 74.0838 28.835 73.2418 29.201C72.4358 29.5511 71.4867 29.251 71.0331 28.5031C70.8664 28.228 70.5938 28.0334 70.2796 27.9648C69.9654 27.8961 69.6364 27.9598 69.3701 28.1403L66.2409 30.2628C65.6603 30.6564 65.396 31.3762 65.5833 32.0538C66.2114 34.3282 66.5299 36.687 66.5299 39.0644C66.5299 39.4539 66.52 39.861 66.5009 40.2745C66.4698 40.948 66.8632 41.5815 67.4798 41.8506L73.3465 44.4126C73.6728 44.5552 74.0462 44.5419 74.3614 44.3767C74.6768 44.2116 74.9001 43.9122 74.9687 43.5628L75.1547 42.6156C75.2195 42.2854 75.4091 42.0001 75.6884 41.8124C75.9675 41.6247 76.3032 41.5569 76.6336 41.6218C77.3154 41.7556 77.7613 42.4191 77.6276 43.1007L76.6655 48.0039C76.5985 48.3452 76.4001 48.6362 76.1067 48.8235C75.8136 49.0106 75.4651 49.0672 75.1255 48.9843C74.4836 48.8266 74.0711 48.1391 74.2059 47.4515L74.2316 47.3205C74.3008 46.9668 74.2039 46.6009 73.9685 46.328C73.7332 46.0548 73.383 45.9039 73.0257 45.9216L66.6796 46.211C66.0077 46.2416 65.4136 46.6922 65.2013 47.3328C64.6134 49.1079 63.8331 50.8231 62.8818 52.4304C62.5275 53.0288 62.5896 53.7875 63.0363 54.3182L65.8438 57.6535C66.0524 57.9013 66.3541 58.0518 66.6772 58.0698C67.0005 58.0873 67.3171 57.9712 67.5515 57.7481C68.1808 57.1495 69.1375 57.0983 69.8263 57.6255C70.1993 57.9107 70.4385 58.3241 70.5005 58.7894C70.5625 59.2547 70.4393 59.7162 70.1542 60.089L69.3407 61.1522C68.7562 61.9158 67.6647 62.1121 66.9074 61.5903C66.2637 61.1468 65.9885 60.3201 66.238 59.58C66.4325 59.0037 66.1546 58.3743 65.5975 58.1298L61.5532 56.3534C60.91 56.0705 60.1593 56.2303 59.6846 56.7512C57.8813 58.7314 55.7988 60.4186 53.495 61.7658C52.9131 62.1055 52.5954 62.7797 52.7041 63.4431L53.7394 69.7563C53.797 70.1077 54.0109 70.4139 54.321 70.589C54.6312 70.764 55.0037 70.7887 55.3345 70.6566L56.2303 70.2981C56.5533 70.1689 56.9056 70.1773 57.2222 70.322C57.5386 70.4664 57.7756 70.728 57.8902 71.0586C58.1066 71.6832 57.7532 72.4032 57.1026 72.6634L52.5275 74.4937C52.2045 74.623 51.8523 74.6144 51.5356 74.4699C51.2194 74.3255 50.9822 74.0639 50.8676 73.7334C50.6512 73.1088 51.0044 72.3888 51.6546 72.1286L51.7784 72.0791C52.1132 71.9453 52.3678 71.6652 52.4692 71.3193C52.5705 70.9735 52.5076 70.6002 52.2981 70.3068L48.6071 65.1352C48.2166 64.5877 47.5154 64.3336 46.8634 64.5027C44.7115 65.0605 42.4869 65.3434 40.2511 65.3434C38.4809 65.3434 36.7062 65.1646 34.9768 64.8121C34.3166 64.6776 33.6305 64.9677 33.2684 65.5346L29.574 71.3289C29.3825 71.629 29.3377 71.9999 29.4521 72.3371C29.5663 72.6744 29.8274 72.9415 30.162 73.0634L30.2927 73.1112C30.7413 73.2747 31.0994 73.6031 31.3008 74.036C31.5023 74.4688 31.5232 74.9543 31.3597 75.4028C31.3126 75.5317 31.2886 75.6679 31.2886 75.805C31.2886 76.2492 31.1576 76.5857 30.9196 76.7521C30.6818 76.9187 30.3211 76.9268 29.9035 76.7743L25.365 75.1194C24.4562 74.7882 23.9724 73.7747 24.2863 72.8604C24.4362 72.4245 24.7587 72.07 25.1946 71.8621C25.655 71.6425 26.1903 71.6152 26.6626 71.7875L26.7666 71.8253C27.1049 71.949 27.4816 71.91 27.7879 71.72C28.0943 71.5299 28.2962 71.2097 28.3358 70.8515L29.088 64.0609C29.162 63.3927 28.8095 62.7362 28.2108 62.4271C25.4654 61.0093 23.0091 59.134 20.9107 56.8539C20.4488 56.3517 19.7154 56.1878 19.0857 56.4462L13.5473 58.7175C13.24 58.8435 13.0004 59.0937 12.888 59.4062C12.7754 59.7187 12.8007 60.0643 12.9571 60.3572C13.3085 61.0148 13.1027 61.8203 12.4783 62.2308C11.8347 62.6543 10.9335 62.4563 10.47 61.7893L9.05142 59.7472C8.59645 59.0923 8.70479 58.2132 9.29801 57.7457C9.60472 57.504 9.98532 57.3981 10.3689 57.4475C10.7555 57.4973 11.0974 57.6955 11.3321 58.0058C11.5444 58.2866 11.8716 58.4575 12.2236 58.4711C12.5743 58.4845 12.9148 58.3396 13.1481 58.0758L17.049 53.6666C17.5068 53.1492 17.5888 52.3945 17.253 51.788C16.8336 51.0315 16.4434 50.2349 16.0937 49.4201C15.8375 48.8244 15.1472 48.5487 14.5512 48.8047C13.9553 49.0607 13.6798 49.7511 13.9356 50.347C14.2492 51.0767 14.5925 51.7938 14.9592 52.4844L12.1652 55.6428C11.7158 55.3672 11.2089 55.1875 10.6689 55.118C9.65325 54.9875 8.65093 55.2656 7.84447 55.9009C6.27743 57.1359 5.96054 59.4139 7.12303 61.0869L8.54165 63.1288C9.72543 64.8329 12.0701 65.3099 13.769 64.1927C15.0395 63.3571 15.6518 61.8997 15.4381 60.4799L19.5213 58.8053C21.6183 61.0073 24.0294 62.8477 26.7004 64.2851L26.1418 69.3291C25.4714 69.31 24.7969 69.4493 24.1835 69.7419C23.1739 70.2235 22.4217 71.0597 22.0653 72.097C21.3385 74.2132 22.458 76.5587 24.5606 77.3254L29.0991 78.9803C29.5545 79.1464 30.0122 79.2285 30.4529 79.2285C31.1167 79.2285 31.7425 79.0421 32.2662 78.6758C33.0879 78.1007 33.5792 77.1372 33.6324 76.0104C33.9369 75.0285 33.8671 73.9828 33.43 73.0442C33.1499 72.4424 32.7389 71.9279 32.2304 71.5308L34.9876 67.2062C38.9471 67.9429 43.0759 67.8345 46.9777 66.8942L49.6572 70.6484C48.6026 71.6029 48.1645 73.1048 48.6484 74.502C48.9753 75.4449 49.6542 76.1921 50.5601 76.6059C51.4534 77.0137 52.488 77.0384 53.3997 76.674L57.9749 74.8437C59.803 74.1124 60.7406 72.112 60.1094 70.2898C59.7826 69.3468 59.1038 68.5995 58.1979 68.1857C57.4547 67.8463 56.613 67.7719 55.8261 67.967L55.1004 63.5426C57.2983 62.2067 59.304 60.5831 61.0733 58.7076L63.8057 59.9077C63.7293 61.3113 64.3801 62.7008 65.5748 63.5242C67.3769 64.7659 69.8503 64.3507 71.2058 62.5795L72.0193 61.5162C72.6858 60.6453 72.9733 59.5669 72.8286 58.4797C72.6839 57.3925 72.1247 56.4267 71.2536 55.7602C69.9827 54.7878 68.3238 54.6569 66.9578 55.3299L65.156 53.1894C65.9982 51.7067 66.7084 50.145 67.2728 48.5348L71.8784 48.3247C72.1068 49.7286 73.1298 50.9122 74.5658 51.2648C75.535 51.5029 76.5312 51.3385 77.3705 50.8027C78.1981 50.2743 78.7812 49.419 78.9701 48.4557L79.9322 43.5526C80.3152 41.6001 79.0384 39.7 77.0859 39.3169Z" fill="black"/>
<path d="M7.56547 42.4888L11.9668 43.5054C12.0626 44.1174 12.1811 44.7388 12.3205 45.3586C12.4431 45.9047 12.9278 46.2759 13.4651 46.2758C13.5503 46.2758 13.6369 46.2664 13.7234 46.2469C14.3561 46.1048 14.7539 45.4768 14.6118 44.844C14.45 44.1232 14.3187 43.4012 14.2216 42.6983C14.1291 42.0293 13.6259 41.4779 12.9697 41.3265L6.73615 39.8869C6.38968 39.8069 6.02457 39.8884 5.7451 40.1087C5.46548 40.3291 5.30093 40.6645 5.2978 41.0205L5.29138 41.7503C5.28402 42.5672 4.61346 43.232 3.79636 43.232C3.40729 43.232 3.04203 43.0798 2.7682 42.8035C2.49422 42.527 2.34532 42.1606 2.34877 41.7716L2.38947 37.2431C2.39307 36.8279 2.56952 36.4216 2.87341 36.1285C3.15898 35.853 3.51986 35.7052 3.9011 35.7165C4.69425 35.7374 5.33616 36.4007 5.33178 37.1949C5.32974 37.5545 5.49272 37.8954 5.77407 38.1196C6.05541 38.3439 6.42428 38.4269 6.77404 38.3445L12.9638 36.8932C13.6195 36.7395 14.1205 36.1866 14.2108 35.5175C14.6675 32.1305 15.7664 28.9108 17.4769 25.9474C17.822 25.349 17.754 24.594 17.307 24.0686L14.3553 20.602C14.1246 20.3311 13.7853 20.1789 13.4274 20.1894C13.0715 20.1997 12.7394 20.3709 12.5246 20.6547L12.2688 20.9929C12.0776 21.2456 11.799 21.4045 11.4839 21.4407C11.17 21.4767 10.8615 21.3843 10.6167 21.1805C10.1543 20.7952 10.0919 20.0665 10.4779 19.5563L12.444 16.9567C12.8257 16.4521 13.5468 16.3519 14.0514 16.7337C14.5239 17.091 14.645 17.7622 14.3271 18.2618C14.1427 18.5519 14.0946 18.9081 14.1956 19.2367C14.2966 19.5654 14.5365 19.8332 14.8518 19.9696L18.9793 21.7547C19.6192 22.0317 20.3661 21.8711 20.838 21.3544C22.7171 19.2961 24.8952 17.5576 27.3125 16.1873C27.8981 15.8551 28.2245 15.1856 28.125 14.5209L27.1741 8.19444C27.1212 7.84233 26.9113 7.53327 26.6036 7.35416C26.2957 7.1749 25.923 7.14515 25.5913 7.27291L24.6906 7.61938C24.3659 7.74401 24.0139 7.73101 23.6994 7.58228C23.385 7.4337 23.1514 7.16895 23.0413 6.83688C22.8333 6.20937 23.196 5.49434 23.8503 5.24274L28.4495 3.47373C28.7742 3.34879 29.1262 3.3621 29.4407 3.51084C29.7551 3.65941 29.9888 3.92416 30.0989 4.25624C30.3068 4.88374 29.9441 5.59877 29.2898 5.85052L29.1655 5.89843C28.8292 6.02791 28.5708 6.30456 28.4648 6.649C28.359 6.99344 28.4169 7.36747 28.6225 7.66353L32.2432 12.8831C32.6262 13.4351 33.323 13.6986 33.9773 13.5384C36.018 13.0387 38.1287 12.7852 40.2536 12.7852H40.2543C40.9471 12.7852 41.5681 12.3485 41.7997 11.6993L42.9985 8.34474C43.1061 8.04383 43.0863 7.71191 42.9437 7.42602C42.8012 7.13998 42.5484 6.92424 42.2432 6.82889C41.3702 6.55584 40.8149 5.6985 40.9226 4.79043C40.9801 4.30728 41.2339 3.86749 41.6372 3.55201C42.0607 3.22072 42.6026 3.06839 43.1247 3.1343L44.7711 3.34159C45.8383 3.47592 46.6156 4.41984 46.504 5.44565C46.4177 6.23755 45.8633 6.87977 45.0916 7.08174C44.5264 7.22969 44.1558 7.77078 44.2224 8.35132L44.639 11.9864C44.7184 12.6801 45.2309 13.2472 45.915 13.3977C48.5377 13.9738 51.051 14.9503 53.3843 16.2996C53.9688 16.6378 54.7124 16.5795 55.2352 16.1552L60.2028 12.1229C60.4793 11.8986 60.6389 11.5609 60.637 11.2048C60.6349 10.849 60.4716 10.513 60.193 10.2916L59.4372 9.6915C59.1648 9.47529 58.9973 9.16529 58.9657 8.8185C58.9342 8.47234 59.0435 8.13667 59.2738 7.87317C59.7086 7.37514 60.5088 7.32473 61.058 7.76045L64.9173 10.8246C65.1897 11.0408 65.3572 11.3508 65.3888 11.6974C65.4203 12.0436 65.311 12.3792 65.0807 12.6429C64.6458 13.1406 63.8451 13.191 63.2968 12.7558L63.1927 12.6731C62.9103 12.4487 62.5405 12.3667 62.1902 12.4503C61.8395 12.5339 61.5468 12.7739 61.396 13.1013L58.7352 18.8773C58.4539 19.4882 58.5815 20.2228 59.0522 20.7051C59.2191 20.8761 59.384 21.053 59.5802 21.2661C60.0193 21.7433 60.7622 21.774 61.2394 21.3347C61.7165 20.8954 61.7472 20.1526 61.308 19.6754C61.225 19.5851 61.1469 19.5005 61.0711 19.4196L63.0036 15.2246C64.3555 15.6668 65.8767 15.3018 66.8494 14.1882C67.5061 13.4365 67.8179 12.4763 67.7274 11.4845C67.6384 10.5066 67.1463 9.59584 66.3774 8.98556L62.5181 5.9216C60.9761 4.69743 58.7742 4.87576 57.5051 6.32851C56.8484 7.08018 56.5366 8.04038 56.6271 9.03221C56.7013 9.84603 57.0543 10.6135 57.6142 11.1998L54.1344 14.025C51.8611 12.7617 49.4369 11.819 46.9156 11.2177L46.6576 8.9652C47.851 8.30513 48.6882 7.08957 48.8396 5.70007C49.089 3.40829 47.3958 1.30517 45.0653 1.01161L43.4189 0.804318C42.2813 0.661219 41.1044 0.988437 40.1915 1.70221C39.2915 2.40597 38.7232 3.40437 38.5915 4.51363C38.3999 6.12623 39.1439 7.66713 40.436 8.53857L39.7561 10.441C37.7774 10.4748 35.8108 10.711 33.8962 11.1449L31.2684 7.35667C32.3354 6.41666 32.7937 4.92069 32.3285 3.51725C32.0143 2.56989 31.3455 1.81368 30.4452 1.38783C29.5575 0.968084 28.5232 0.929413 27.6069 1.28184L23.0078 3.05069C21.1699 3.75742 20.2056 5.74516 20.8126 7.57586C21.1267 8.52322 21.7954 9.27943 22.6958 9.70528C23.4345 10.0546 24.2744 10.1402 25.0644 9.95563L25.7308 14.3892C23.4122 15.7562 21.303 17.4386 19.4496 19.3991L16.7985 18.2526C17.0139 16.9974 16.5344 15.6668 15.4685 14.8605C14.7237 14.2971 13.8045 14.0571 12.8792 14.186C11.9543 14.3142 11.1347 14.7952 10.5715 15.5399L8.60521 18.1395C7.45462 19.6604 7.67804 21.7887 9.11373 22.9847C9.85662 23.6036 10.7933 23.884 11.7521 23.7738C12.3566 23.7044 12.9309 23.476 13.4166 23.1217L15.1953 25.211C13.5517 28.1759 12.4625 31.3698 11.953 34.7181L7.40938 35.7835C6.8578 34.407 5.52325 33.41 3.96325 33.3688C2.94762 33.3433 1.98523 33.722 1.24249 34.4386C0.488477 35.1663 0.0504118 36.1807 0.0408614 37.2218L0.00015483 41.7506C-0.00892587 42.7709 0.381701 43.7321 1.09986 44.4568C1.81802 45.1815 2.77572 45.5806 3.7962 45.5806C5.65148 45.5808 7.2132 44.2476 7.56547 42.4888Z" fill="black"/>
<path d="M34.4381 36.0789C35.0109 35.7753 35.2293 35.0645 34.9256 34.4915C34.622 33.9188 33.9115 33.6999 33.338 34.004C30.5319 35.4913 27.3335 35.0982 25.7339 33.0685C24.8363 31.93 24.5276 30.4212 24.8645 28.8203C25.2177 27.1416 26.2278 25.5743 27.7088 24.4071C29.1894 23.2398 30.9495 22.6245 32.664 22.6721C34.2993 22.7182 35.6942 23.3708 36.5919 24.5095C37.9396 26.2193 37.9225 28.7715 36.5482 31.0114C36.2091 31.5642 36.3821 32.2873 36.9351 32.6264C37.4878 32.9655 38.2108 32.7923 38.5499 32.2397C40.4446 29.1516 40.3998 25.5467 38.4361 23.0556C37.1001 21.3607 35.0737 20.3908 32.7304 20.3247C30.4659 20.2589 28.1669 21.0555 26.2549 22.5628C24.3427 24.07 23.0329 26.1207 22.5663 28.3367C22.0834 30.6307 22.5535 32.8276 23.8894 34.5224C25.2961 36.3069 27.4988 37.2456 29.8686 37.2455C31.3783 37.2455 32.9557 36.8647 34.4381 36.0789Z" fill="black"/>
<path d="M57.2225 25.5482C57.2225 23.1138 54.957 21.1333 52.1723 21.1333C49.3877 21.1333 47.1221 23.1138 47.1221 25.5482C47.1221 27.9827 49.3877 29.9632 52.1723 29.9632C54.957 29.9632 57.2225 27.9827 57.2225 25.5482ZM49.4707 25.5482C49.4707 24.4088 50.6826 23.4818 52.1725 23.4818C53.6622 23.4818 54.8742 24.4088 54.8742 25.5482C54.8742 26.6877 53.6622 27.6147 52.1725 27.6147C50.6826 27.6147 49.4707 26.6877 49.4707 25.5482Z" fill="black"/>
<path d="M43.5959 45.7295C43.5959 42.7461 41.1687 40.3188 38.1853 40.3188C35.2016 40.3188 32.7744 42.7461 32.7744 45.7295C32.7744 48.713 35.2016 51.1402 38.1853 51.1402C41.1687 51.1402 43.5959 48.713 43.5959 45.7295ZM35.123 45.7295C35.123 44.041 36.4967 42.6673 38.1854 42.6673C39.8738 42.6673 41.2476 44.041 41.2476 45.7295C41.2476 47.4181 39.874 48.7918 38.1854 48.7918C36.4967 48.7918 35.123 47.4181 35.123 45.7295Z" fill="black"/>
<path d="M58.9038 43.5224C58.9038 41.2022 57.0162 39.3147 54.6961 39.3147C52.3762 39.3147 50.4886 41.2022 50.4886 43.5224C50.4886 45.8425 52.3762 47.73 54.6961 47.73C57.0162 47.7299 58.9038 45.8425 58.9038 43.5224ZM52.8369 43.5224C52.8369 42.4972 53.671 41.6632 54.696 41.6632C55.7212 41.6632 56.5552 42.4972 56.5552 43.5224C56.5552 44.5475 55.7212 45.3816 54.696 45.3816C53.6711 45.3814 52.8369 44.5475 52.8369 43.5224Z" fill="black"/>
<path d="M43.4937 62.4486C45.7671 62.4486 47.6169 60.5989 47.6169 58.3253C47.6169 56.0518 45.7673 54.202 43.4937 54.202C41.22 54.202 39.3702 56.0517 39.3702 58.3253C39.3702 60.5989 41.2199 62.4486 43.4937 62.4486ZM43.4937 56.5505C44.4723 56.5505 45.2685 57.3466 45.2685 58.3253C45.2685 59.304 44.4723 60.1001 43.4937 60.1001C42.515 60.1001 41.7187 59.304 41.7187 58.3253C41.7187 57.3466 42.515 56.5505 43.4937 56.5505Z" fill="black"/>
<path d="M25.0408 55.5173C27.3822 55.5173 29.2871 53.6124 29.2871 51.271C29.2871 48.9296 27.3822 47.0247 25.0408 47.0247C22.6993 47.0247 20.7944 48.9296 20.7944 51.271C20.7944 53.6124 22.6993 55.5173 25.0408 55.5173ZM25.0408 49.3731C26.0874 49.3731 26.9386 50.2245 26.9386 51.271C26.9386 52.3175 26.0872 53.1688 25.0408 53.1688C23.9943 53.1688 23.1429 52.3175 23.1429 51.271C23.1429 50.2245 23.9943 49.3731 25.0408 49.3731Z" fill="black"/>
<path d="M48.9517 36.5753C48.9517 35.9269 48.4261 35.4011 47.7774 35.4011H46.7394C46.0908 35.4011 45.5652 35.9269 45.5652 36.5753C45.5652 37.2238 46.0908 37.7496 46.7394 37.7496H47.7774C48.4261 37.7496 48.9517 37.2238 48.9517 36.5753Z" fill="black"/>
<path d="M32.8822 58.2752H33.9488C34.5974 58.2752 35.123 57.7495 35.123 57.101C35.123 56.4525 34.5974 55.9268 33.9488 55.9268H32.8822C32.2336 55.9268 31.708 56.4525 31.708 57.101C31.708 57.7495 32.2337 58.2752 32.8822 58.2752Z" fill="black"/>
<path d="M22.996 41.1749C23.6447 41.1749 24.1703 40.6491 24.1703 40.0006C24.1703 39.3522 23.6447 38.8264 22.996 38.8264H21.9687C21.32 38.8264 20.7944 39.3522 20.7944 40.0006C20.7944 40.6491 21.32 41.1749 21.9687 41.1749H22.996Z" fill="black"/>
<path d="M43.8514 20.6311C44.5001 20.6311 45.0256 20.1053 45.0256 19.4568C45.0256 18.8083 44.5001 18.2826 43.8514 18.2826H42.4217C41.773 18.2826 41.2474 18.8083 41.2474 19.4568C41.2474 20.1053 41.773 20.6311 42.4217 20.6311H43.8514Z" fill="black"/>
<path d="M51.6628 52.104C51.0141 52.104 50.4885 52.6297 50.4885 53.2782C50.4885 53.9267 51.0141 54.4525 51.6628 54.4525H53.2415C53.8902 54.4525 54.4158 53.9267 54.4158 53.2782C54.4158 52.6297 53.8902 52.104 53.2415 52.104H51.6628Z" fill="black"/>
</g>
<defs>
<clipPath id="clip0">
<rect width="80" height="80" fill="white"/>
</clipPath>
</defs>
</svg>
