<svg width="44" height="44" viewBox="0 0 44 44" fill="none" xmlns="http://www.w3.org/2000/svg">
<path d="M44 22C44 9.84844 34.1516 0 22 0C9.84844 0 0 9.84844 0 22C0 34.1516 9.84844 44 22 44C22.1289 44 22.2578 44 22.3867 43.9914V26.8727H17.6602V21.3641H22.3867V17.3078C22.3867 12.607 25.257 10.0461 29.4508 10.0461C31.4617 10.0461 33.1891 10.1922 33.6875 10.2609V15.1766H30.8C28.5227 15.1766 28.0758 16.2594 28.0758 17.8492V21.3555H33.5328L32.8195 26.8641H28.0758V43.1492C37.2711 40.5109 44 32.0461 44 22Z" fill="#FFD973"/>
</svg>
