<svg width="44" height="44" viewBox="0 0 44 44" fill="none" xmlns="http://www.w3.org/2000/svg">
<path d="M26.2109 22C26.2109 24.3257 24.3257 26.2109 22 26.2109C19.6743 26.2109 17.7891 24.3257 17.7891 22C17.7891 19.6743 19.6743 17.7891 22 17.7891C24.3257 17.7891 26.2109 19.6743 26.2109 22Z" fill="#FFD973"/>
<path d="M31.8479 14.5499C31.6455 14.0014 31.3225 13.5049 30.9029 13.0974C30.4954 12.6777 29.9992 12.3548 29.4504 12.1524C29.0052 11.9795 28.3365 11.7737 27.1049 11.7177C25.7725 11.6569 25.373 11.6438 22 11.6438C18.6266 11.6438 18.2271 11.6566 16.8951 11.7173C15.6635 11.7737 14.9944 11.9795 14.5496 12.1524C14.0008 12.3548 13.5043 12.6777 13.0971 13.0974C12.6775 13.5049 12.3545 14.001 12.1518 14.5499C11.9789 14.995 11.7731 15.6641 11.717 16.8957C11.6563 18.2278 11.6432 18.6272 11.6432 22.0006C11.6432 25.3737 11.6563 25.7731 11.717 27.1055C11.7731 28.3372 11.9789 29.0059 12.1518 29.451C12.3545 29.9998 12.6771 30.496 13.0967 30.9035C13.5043 31.3232 14.0004 31.6461 14.5493 31.8485C14.9944 32.0217 15.6635 32.2275 16.8951 32.2836C18.2271 32.3443 18.6263 32.3571 21.9997 32.3571C25.3734 32.3571 25.7729 32.3443 27.1046 32.2836C28.3362 32.2275 29.0052 32.0217 29.4504 31.8485C30.5521 31.4235 31.4229 30.5527 31.8479 29.451C32.0208 29.0059 32.2266 28.3372 32.283 27.1055C32.3437 25.7731 32.3565 25.3737 32.3565 22.0006C32.3565 18.6272 32.3437 18.2278 32.283 16.8957C32.2269 15.6641 32.0211 14.995 31.8479 14.5499ZM22 28.4872C18.4171 28.4872 15.5127 25.5831 15.5127 22.0003C15.5127 18.4174 18.4171 15.5133 22 15.5133C25.5825 15.5133 28.4869 18.4174 28.4869 22.0003C28.4869 25.5831 25.5825 28.4872 22 28.4872ZM28.7434 16.7729C27.9062 16.7729 27.2274 16.0941 27.2274 15.2569C27.2274 14.4196 27.9062 13.7409 28.7434 13.7409C29.5806 13.7409 30.2594 14.4196 30.2594 15.2569C30.2591 16.0941 29.5806 16.7729 28.7434 16.7729Z" fill="#FFD973"/>
<path d="M22 0C9.85159 0 0 9.85159 0 22C0 34.1484 9.85159 44 22 44C34.1484 44 44 34.1484 44 22C44 9.85159 34.1484 0 22 0ZM34.5566 27.2083C34.4955 28.5531 34.2817 29.4712 33.9695 30.2748C33.3132 31.9718 31.9718 33.3132 30.2748 33.9695C29.4715 34.2817 28.5531 34.4952 27.2086 34.5566C25.8615 34.618 25.4311 34.6328 22.0003 34.6328C18.5692 34.6328 18.1392 34.618 16.7917 34.5566C15.4473 34.4952 14.5288 34.2817 13.7255 33.9695C12.8822 33.6523 12.1189 33.1551 11.4878 32.5122C10.8452 31.8815 10.3481 31.1178 10.0309 30.2748C9.71866 29.4715 9.50482 28.5531 9.44373 27.2086C9.38162 25.8611 9.36719 25.4308 9.36719 22C9.36719 18.5692 9.38162 18.1389 9.44339 16.7917C9.50449 15.4469 9.71799 14.5288 10.0302 13.7252C10.3474 12.8822 10.8449 12.1185 11.4878 11.4878C12.1185 10.8449 12.8822 10.3477 13.7252 10.0305C14.5288 9.71832 15.4469 9.50482 16.7917 9.44339C18.1389 9.38196 18.5692 9.36719 22 9.36719C25.4308 9.36719 25.8611 9.38196 27.2083 9.44373C28.5531 9.50482 29.4712 9.71832 30.2748 10.0302C31.1178 10.3474 31.8815 10.8449 32.5126 11.4878C33.1551 12.1189 33.6526 12.8822 33.9695 13.7252C34.282 14.5288 34.4955 15.4469 34.5569 16.7917C34.6184 18.1389 34.6328 18.5692 34.6328 22C34.6328 25.4308 34.6184 25.8611 34.5566 27.2083Z" fill="#FFD973"/>
</svg>
