<svg width="107" height="103" viewBox="0 0 107 103" fill="none" xmlns="http://www.w3.org/2000/svg">
<rect width="74.2597" height="74.2597" transform="matrix(0.720445 -0.693512 0.720445 0.693512 0 51.5)" fill="#FFD973"/>
<path d="M49.3977 27.666C52.8322 27.5489 56.2624 27.4274 59.6969 27.3103C61.8552 27.1585 67.204 27.0891 72.42 30.4763C73.9488 31.4695 77.0621 33.5512 78.9978 37.6584C81.6015 43.188 80.1969 48.4141 79.82 49.7325C78.8265 53.2238 76.9893 55.44 76.5311 55.9778C75.9873 56.611 74.27 58.5149 71.3922 59.9331C70.0689 60.5837 68.7028 61.0304 66.87 61.3903C63.1742 62.1146 57.4401 62.1146 53.7143 61.5985C53.2647 61.5378 52.1513 61.373 51.2477 62.0149C50.3912 62.6264 50.1171 63.6803 50.0143 64.3048V80.3343H38.5032C38.5032 71.244 38.5032 62.1537 38.5032 53.0633C42.8884 52.9246 47.2736 52.7858 51.6588 52.647C52.7422 52.6123 56.1939 53.0156 60.7075 52.5949C65.0542 52.1916 66.1462 51.5237 66.87 50.8428C68.8998 48.9345 69.5593 45.4519 68.4545 42.8801C68.3089 42.5418 67.7607 41.2667 66.5017 40.2779C64.8272 38.9595 62.3006 38.4564 62.3006 38.4564C62.3006 38.4564 57.9882 37.7841 53.8514 38.4C52.1727 38.6472 50.8494 39.0636 50.0572 39.3411C50.0229 42.0821 49.9886 44.8231 49.9544 47.564C46.1858 47.5293 42.4173 47.4946 38.6488 47.46C38.6017 39.2674 38.5503 31.0705 38.5032 22.8779C42.1347 22.8779 45.7662 22.8779 49.3977 22.8779V27.666Z" fill="#101113"/>
</svg>
