<svg width="80" height="80" viewBox="0 0 80 80" fill="none" xmlns="http://www.w3.org/2000/svg">
<path d="M54.531 23.4254C54.9886 22.9678 54.9886 22.2258 54.531 21.7683C54.0733 21.3106 53.3313 21.3106 52.8738 21.7683L49.3591 25.2829C48.9766 23.2437 47.5968 21.2728 45.9994 19.9006L49.2615 15.1922C49.6301 14.6601 49.4975 13.9301 48.9655 13.5615C48.4335 13.1929 47.7035 13.3254 47.3349 13.8575L44.0647 18.5776C42.7754 17.8989 41.3924 17.5404 40.0008 17.5404C38.6083 17.5404 37.2255 17.8987 35.9366 18.5773L32.6666 13.8575C32.298 13.3256 31.568 13.1929 31.036 13.5615C30.504 13.9301 30.3715 14.6601 30.74 15.1922L34.0021 19.9004C32.1515 21.4908 30.5421 23.9543 30.5421 26.3214C30.5421 27.0072 30.6857 27.7164 30.9952 28.4062C29.9919 29.7025 29.0986 30.9811 28.3161 32.2404L23.4277 31.2065C23.3529 31.1906 23.2963 31.1318 23.2832 31.0565L22.0071 23.6873C21.8966 23.0497 21.291 22.6226 20.6524 22.7326C20.0146 22.8431 19.5872 23.4495 19.6977 24.0873L20.9738 31.4565C21.1515 32.482 21.9241 33.284 22.9427 33.4997L27.0857 34.3759C26.1347 36.169 25.4172 37.9197 24.9355 39.6229H21.5782C20.0846 39.6229 18.6896 40.359 17.8465 41.592L15.7454 44.6648C15.38 45.199 15.5171 45.9283 16.0513 46.2936C16.5896 46.6615 17.3175 46.5179 17.68 45.9876L19.7811 42.9148C20.1872 42.3211 20.859 41.9665 21.5782 41.9665H24.4163C24.0096 44.5397 24.1672 46.9969 24.95 49.6919L14.5211 60.1208C9.67583 54 7.21098 46.3454 7.57192 38.4987C8.35833 21.4053 22.4139 7.53748 39.9999 7.53748C47.3021 7.53748 54.4232 10.0134 60.1207 14.5212L56.8325 17.8094C56.3749 18.267 56.3749 19.009 56.8325 19.4665C57.2902 19.9243 58.0322 19.9242 58.4897 19.4665L62.6955 15.2608C62.9294 15.0269 63.0535 14.7051 63.0374 14.375C63.0013 13.6367 62.3732 13.3894 62.0682 13.0811C55.8785 7.99482 48.0411 5.19373 39.9999 5.19373C21.133 5.19373 6.07364 20.0729 5.23067 38.3909C4.83395 47.0159 7.62192 55.4247 13.0811 62.0683L13.5269 62.6109C13.9658 63.1453 14.771 63.1856 15.261 62.6956C43.6675 34.2889 35.9352 42.0212 54.531 23.4254ZM35.4825 39.1593C32.2761 39.635 29.3215 40.6015 26.7947 41.9925C27.448 38.4269 29.3654 34.4743 32.4352 30.3833C34.1529 31.9967 36.8872 33.0147 40.0005 33.0147C40.5944 33.0147 41.174 32.9778 41.7347 32.907L35.4825 39.1593ZM40.0005 19.8842C43.8594 19.8842 47.1157 23.8381 47.1157 26.3214C47.1157 28.6792 43.8574 30.6711 40.0005 30.6711C37.0952 30.6711 34.5115 29.5393 33.4271 27.9589C33.3582 27.8319 32.8854 27.2245 32.8854 26.3215C32.8854 23.7534 36.2329 19.8842 40.0005 19.8842ZM26.543 44.8867C28.2468 43.7418 30.239 42.8383 32.4338 42.2081L26.8797 47.7622C26.6716 46.7803 26.5588 45.8187 26.543 44.8867Z" fill="black"/>
<path d="M40 0C17.8934 0 0 17.8902 0 40C0 62.1066 17.8902 80 40 80C62.1066 80 80 62.1097 80 40C80 17.8934 62.1097 0 40 0ZM40 77.6562C19.1886 77.6562 2.34375 60.8142 2.34375 40C2.34375 19.1886 19.1858 2.34375 40 2.34375C60.8114 2.34375 77.6562 19.1859 77.6562 40C77.6562 60.8114 60.8141 77.6562 40 77.6562Z" fill="black"/>
<path d="M66.9189 17.9316C66.6052 17.6214 66.3647 16.9986 65.6247 16.9625C65.295 16.9461 64.9728 17.0706 64.7391 17.3044C62.645 19.3984 19.4636 62.58 17.3046 64.7391C17.0707 64.973 16.9466 65.2947 16.9627 65.6248C16.9988 66.3631 17.626 66.6095 17.9318 66.9187C24.1218 72.005 31.9591 74.8061 40.0002 74.8061C58.8975 74.8061 73.928 59.8947 74.7693 41.6089C75.166 32.9842 72.3782 24.5755 66.9189 17.9316ZM35.5313 53.9597C35.4068 53.3245 34.7914 52.9103 34.1558 53.0351C33.3314 53.1967 32.5238 53.3926 31.7369 53.6211L43.9171 41.4409C47.5227 41.9434 50.8696 43.1527 53.458 44.8872C53.4082 47.8364 52.3997 51.0192 50.4563 54.3639C47.2844 53.127 43.6927 52.4767 40.0005 52.4767C39.3533 52.4767 38.8286 53.0014 38.8286 53.6486C38.8286 54.2958 39.3533 54.8205 40.0005 54.8205C43.2393 54.8205 46.3835 55.3594 49.1803 56.3869C47.7739 58.4561 46.0489 60.5417 44.0382 62.6027C41.8264 64.8694 38.1805 64.8758 35.9627 62.6027C33.9518 60.5414 32.2269 58.4558 30.8207 56.3869C32.0207 55.9461 33.2888 55.5936 34.6069 55.3353C35.2419 55.2106 35.6558 54.5948 35.5313 53.9597ZM53.2091 41.9933C51.0605 40.8089 48.6074 39.9344 45.9511 39.407L50.5011 34.857C51.1591 36.0366 51.7121 37.1977 52.1507 38.323C52.6405 39.5794 52.9941 40.8069 53.2091 41.9933ZM57.2233 28.1348L56.7174 31.0566C56.7044 31.1319 56.6477 31.1906 56.573 31.2064L53.5022 31.8558L57.2233 28.1348ZM72.428 41.5012C71.6418 58.5947 57.586 72.4625 40.0002 72.4625C32.6982 72.4625 25.5769 69.9866 19.8794 65.4787L23.1572 62.2009L24.0435 64.7602C24.2546 65.3698 24.9208 65.6962 25.5344 65.4839C26.146 65.2722 26.47 64.6047 26.2582 63.993L24.9994 60.3586L28.3924 56.9656C29.961 59.3922 31.9408 61.8366 34.285 64.2392C37.4138 67.4461 42.5747 67.4586 45.7157 64.2392C48.2252 61.6672 50.3175 59.0472 51.9344 56.4522C51.9355 56.4506 51.9364 56.4489 51.9374 56.4472C52.4024 55.7006 52.8258 54.9592 53.2075 54.2233L55.4757 55.9017C55.9843 56.2781 56.1869 56.9328 55.9799 57.5308L53.7419 63.9928C53.5302 64.6044 53.8541 65.2719 54.4657 65.4837C55.0785 65.6961 55.7452 65.37 55.9566 64.76L58.1946 58.2978C58.7386 56.7267 58.2063 55.0067 56.8699 54.0177L54.2182 52.0552C55.756 48.3289 56.0886 45.1381 55.5819 41.9662H58.4219C59.1411 41.9662 59.8128 42.3208 60.2189 42.9145L62.32 45.9873C62.6841 46.5198 63.4132 46.6595 63.9488 46.2933C64.483 45.928 64.6199 45.1987 64.2547 44.6645L62.1536 41.5917C61.3105 40.3587 59.9155 39.6227 58.4219 39.6227H55.0599C54.8585 38.9133 54.6166 38.1956 54.3344 37.4716C53.94 36.4597 53.4627 35.4247 52.908 34.3772L57.058 33.4994C58.0764 33.2839 58.8491 32.4819 59.0268 31.4564L60.1002 25.2578L65.4789 19.8791C70.3241 26 72.7889 33.6547 72.428 41.5012Z" fill="black"/>
</svg>
