<svg width="80" height="80" viewBox="0 0 80 80" fill="none" xmlns="http://www.w3.org/2000/svg">
<path d="M71.2913 13.3513H65.5367C64.8894 13.3513 64.3649 13.8758 64.3649 14.5231C64.3649 15.1705 64.8894 15.695 65.5367 15.695H71.2913C74.8009 15.695 77.6562 18.5503 77.6562 22.06V56.5965C77.6562 59.8282 75.2295 62.5532 71.9988 62.9226C63.2107 63.9271 54.305 64.5235 45.5099 64.6973V60.9009H47.4471C48.0944 60.9009 48.619 60.3763 48.619 59.729V56.8699C55.4939 53.5642 59.8944 46.6082 59.8944 38.9359C59.8944 27.9661 50.9697 19.0414 39.9999 19.0414C29.0301 19.0414 20.1054 27.9661 20.1054 38.9359C20.1054 40.9984 20.4212 43.0343 21.044 44.9871C21.2409 45.6037 21.9001 45.944 22.5167 45.7475C23.1332 45.5507 23.4737 44.8914 23.277 44.2748C22.7276 42.5528 22.4492 40.7564 22.4492 38.9359C22.4492 29.2583 30.3224 21.3852 39.9999 21.3852C49.6774 21.3852 57.5507 29.2584 57.5507 38.9359C57.5507 45.3185 54.0986 51.1393 48.619 54.2279V49.0293H49.4216C50.8652 49.0293 52.0399 47.8548 52.0399 46.411V43.1453C52.0399 41.7017 50.8652 40.527 49.4216 40.527H45.5099V38.9829C45.5099 37.6765 44.4471 36.6137 43.1407 36.6137H36.8595C35.5531 36.6137 34.4902 37.6765 34.4902 38.9829V40.527H30.5785C29.1348 40.527 27.9601 41.7017 27.9601 43.1453V46.411C27.9601 47.8548 29.1348 49.0293 30.5785 49.0293H31.3812V54.2276C28.9206 52.8407 26.8312 50.8817 25.2745 48.4868C24.9217 47.9442 24.1957 47.7904 23.6532 48.1431C23.1106 48.4959 22.9567 49.2217 23.3095 49.7643C25.3112 52.8437 28.0909 55.2874 31.3812 56.8696V59.729C31.3812 60.3763 31.9057 60.9009 32.5531 60.9009H34.4902V64.6974C25.6939 64.5237 16.7879 63.9273 8.00139 62.9227C4.76249 62.5524 2.34375 59.8205 2.34375 56.5965V22.06C2.34375 18.5503 5.19905 15.695 8.70873 15.695H23.2062C26.0024 15.695 28.5924 14.4302 30.312 12.2252C31.5843 10.5936 33.5006 9.65783 35.5695 9.65783H44.4304C46.4993 9.65783 48.4155 10.5936 49.6879 12.2253C51.4076 14.4303 53.9974 15.695 56.7936 15.695H60.8511C61.4985 15.695 62.023 15.1705 62.023 14.5231C62.023 13.8758 61.4985 13.3513 60.8511 13.3513H56.7936C54.7247 13.3513 52.8085 12.4155 51.5361 10.7838C49.8165 8.57877 47.2266 7.31409 44.4304 7.31409H35.5695C32.7732 7.31409 30.1831 8.57893 28.4637 10.7839C27.1912 12.4155 25.2751 13.3513 23.2062 13.3513H8.70873C3.90671 13.3513 0 17.258 0 22.06V56.5965C0 59.9752 1.93453 62.9413 4.80905 64.3824V68.8133C4.80905 70.9488 6.54639 72.686 8.68186 72.686H14.2208C14.8681 72.686 15.3926 72.1615 15.3926 71.5141C15.3926 70.8668 14.8681 70.3423 14.2208 70.3423H8.68186C7.83873 70.3423 7.1528 69.6563 7.1528 68.8133V65.1649C7.34467 65.1999 7.53873 65.2288 7.73514 65.2512C16.6097 66.2659 25.6054 66.8676 34.4901 67.0416V70.3423H18.9064C18.259 70.3423 17.7345 70.8668 17.7345 71.5141C17.7345 72.1615 18.259 72.686 18.9064 72.686H71.3181C73.4536 72.686 75.1908 70.9488 75.1908 68.8133V64.3826C78.0655 62.9415 80 59.9754 80 56.5966V22.06C80 17.258 76.0933 13.3513 71.2913 13.3513ZM36.8338 38.9831C36.8338 38.969 36.8452 38.9576 36.8593 38.9576H43.1405C43.1546 38.9576 43.166 38.969 43.166 38.9831V40.5271H36.8338V38.9831ZM30.3037 46.4112V43.1453C30.3037 42.9939 30.4268 42.8707 30.5784 42.8707H49.4216C49.573 42.8707 49.6962 42.9939 49.6962 43.1453V46.411C49.6962 46.5625 49.573 46.6856 49.4216 46.6856H30.5784C30.4268 46.6857 30.3037 46.5625 30.3037 46.4112ZM33.7248 49.0295H46.2752V58.5573H33.7248C33.7248 56.2165 33.7248 51.3981 33.7248 49.0295ZM36.8338 70.3423V60.9009H43.166V70.3423H36.8338ZM72.847 68.8133C72.847 69.6565 72.1611 70.3423 71.3181 70.3423H45.5099V67.0415C54.3933 66.8676 63.3889 66.2659 72.2649 65.2512C72.4611 65.2287 72.6552 65.1998 72.847 65.1649V68.8133Z" fill="black"/>
<path d="M12.1536 42.138C11.5141 42.238 11.0767 42.8375 11.1767 43.4768C12.2058 50.0588 15.5147 56.1507 20.4936 60.6304C20.7176 60.8319 20.9978 60.9311 21.2772 60.9311C21.5978 60.9311 21.9173 60.8002 22.1486 60.5432C22.5816 60.0621 22.5425 59.3211 22.0612 58.8882C17.4814 54.7677 14.4384 49.166 13.4923 43.1149C13.3925 42.4755 12.7942 42.038 12.1536 42.138Z" fill="black"/>
<path d="M66.5077 43.1149C65.5614 49.1663 62.5185 54.7679 57.9388 58.8882C57.4577 59.3211 57.4186 60.0621 57.8514 60.5432C58.0827 60.8004 58.402 60.9311 58.7228 60.9311C59.002 60.9311 59.2824 60.8319 59.5064 60.6304C64.4852 56.1508 67.7941 50.059 68.8233 43.4768C68.9233 42.8374 68.486 42.2379 67.8464 42.138C67.2075 42.038 66.6078 42.4755 66.5077 43.1149Z" fill="black"/>
<path d="M35.7777 12.7146C35.1303 12.7146 34.6058 13.2391 34.6058 13.8865C34.6058 14.5338 35.1303 15.0583 35.7777 15.0583H44.2225C44.8698 15.0583 45.3944 14.5338 45.3944 13.8865C45.3944 13.2391 44.8698 12.7146 44.2225 12.7146H35.7777Z" fill="black"/>
<path d="M8.35812 21.4226C7.09421 22.6867 6.2889 24.2745 6.09062 25.8934C5.87905 27.6198 6.37124 29.1789 7.47593 30.2836C8.41312 31.2208 9.67718 31.7172 11.0928 31.7172C11.3461 31.7172 11.6041 31.7012 11.8661 31.6691C13.485 31.4708 15.0728 30.6655 16.3369 29.4016C19.0228 26.7155 19.4187 22.7405 17.2189 20.5405C15.0192 18.3406 11.0444 18.7369 8.35812 21.4226ZM14.6797 27.7442C13.7841 28.64 12.6836 29.2078 11.5814 29.3426C10.5861 29.4645 9.71702 29.21 9.13327 28.6262C8.54968 28.0426 8.29515 27.1731 8.41702 26.1783C8.55187 25.0761 9.11968 23.9756 10.0155 23.08C11.085 22.0105 12.4147 21.4423 13.5841 21.4423C14.3525 21.4423 15.0519 21.688 15.5617 22.1978C16.8478 23.4837 16.452 25.972 14.6797 27.7442Z" fill="black"/>
<path d="M72.5241 30.2838C74.7238 28.0839 74.3281 24.1089 71.6419 21.4227C68.9556 18.7367 64.9808 18.3403 62.7808 20.5406C60.5813 22.7405 60.9769 26.7155 63.663 29.4016C64.927 30.6655 66.5149 31.4708 68.1338 31.6691C68.3958 31.7013 68.6538 31.7172 68.907 31.7172C70.3228 31.7172 71.587 31.2208 72.5241 30.2838ZM68.4188 29.3427C67.3166 29.2078 66.2161 28.64 65.3205 27.7442C63.5481 25.9721 63.1523 23.4838 64.4383 22.198C64.9484 21.6878 65.6472 21.4424 66.4159 21.4424C67.585 21.4424 68.9153 22.0108 69.9845 23.08C71.757 24.8524 72.1527 27.3405 70.8667 28.6264C70.283 29.2103 69.4125 29.4646 68.4188 29.3427Z" fill="black"/>
<path d="M38.1528 55.5389H41.8475C42.4949 55.5389 43.0194 55.0144 43.0194 54.3671C43.0194 53.7197 42.4949 53.1952 41.8475 53.1952H38.1528C37.5055 53.1952 36.9809 53.7197 36.9809 54.3671C36.9809 55.0144 37.5055 55.5389 38.1528 55.5389Z" fill="black"/>
</svg>
