<svg width="44" height="44" viewBox="0 0 44 44" fill="none" xmlns="http://www.w3.org/2000/svg">
<path d="M22 44C34.1532 44 44 34.1532 44 22C44 9.84683 34.1532 0 22 0C9.84683 0 0 9.84683 0 22C0 34.1532 9.84683 44 22 44ZM10.0668 21.5233L31.2785 13.3448C32.263 12.9892 33.1228 13.585 32.8038 15.0737L32.8057 15.0718L29.194 32.087C28.9263 33.2933 28.2095 33.5867 27.2067 33.0183L21.7067 28.9648L19.0538 31.5205C18.7605 31.8138 18.513 32.0613 17.9447 32.0613L18.3352 26.4642L28.5285 17.2553C28.9722 16.8648 28.4295 16.6448 27.8447 17.0335L15.2478 24.9645L9.8175 23.2705C8.63867 22.8965 8.613 22.0917 10.0668 21.5233Z" fill="#FFD973"/>
</svg>
