<svg width="80" height="80" viewBox="0 0 80 80" fill="none" xmlns="http://www.w3.org/2000/svg">
<path d="M2.63755 55.4486C2.49338 56.1828 1.85371 56.675 1.16588 56.5806C0.478213 56.4864 -0.0281213 55.8372 0.0012121 55.0871C0.472379 43.03 9.11889 33.3978 19.9557 32.2854C14.7017 20.0476 19.8779 5.33176 31.5651 0.109669C32.2057 -0.176577 32.9426 0.116528 33.2594 0.784134C33.5764 1.45174 33.3681 2.27095 32.7804 2.66874C27.2414 6.41719 25.0716 13.6688 27.1387 20.0415C34.1649 15.7353 42.6493 15.1822 50.1459 18.6158C50.8241 18.9265 51.1414 19.7738 50.8546 20.5082C50.5678 21.2424 49.7859 21.5862 49.1073 21.2754C42.3123 18.1628 34.6146 18.701 28.2714 22.6691C30.6444 26.998 35.0031 29.9072 39.9796 29.9072C47.4829 29.9072 53.5873 23.2969 53.5873 15.1715C53.5873 10.0584 51.1914 5.38428 47.1786 2.66856C46.5909 2.27059 46.3826 1.45138 46.6996 0.783773C47.0164 0.116167 47.7529 -0.176937 48.3939 0.109489C60.7956 5.65122 65.8144 21.8611 58.9968 34.357C58.6221 35.0434 57.8049 35.2717 57.1706 34.8656C56.5366 34.4599 56.3264 33.5746 56.7009 32.8881C60.7318 25.4998 60.1688 16.1777 55.3681 9.40562C59.0176 20.8811 51.1061 32.7949 39.9797 32.7949C28.7762 32.7949 20.9616 20.819 24.5914 9.40544C19.7919 16.175 19.2259 25.4964 23.2581 32.8874C23.7836 33.8504 23.1387 35.0656 22.1101 35.0656C15.9496 34.9335 9.38589 38.4017 5.63122 44.8563C10.2257 40.7925 16.8549 39.5096 22.8274 42.5253C32.1031 47.2092 35.1264 59.8867 29.1161 68.8587C28.5564 69.6943 27.8179 69.7198 27.2972 69.4057C20.5286 65.3268 15.5356 58.0129 14.2104 49.3077C14.0906 48.5208 14.5826 47.7779 15.3092 47.6482C16.0342 47.518 16.7217 48.051 16.8416 48.8379C17.9429 56.0738 21.8184 62.3357 27.5437 66.2096C29.7087 62.3895 30.1637 57.7045 28.7364 53.4575C26.1702 45.8222 18.3456 41.8713 11.2954 44.6503C6.85822 46.3996 3.62172 50.4361 2.63755 55.4486ZM65.4893 33.6257C64.7973 33.353 64.0321 33.7394 63.7803 34.4886C63.5284 35.238 63.8853 36.0666 64.5771 36.3393C68.7153 37.9703 72.1031 40.9968 74.3479 44.8379C65.6613 37.1825 52.5893 41.071 48.7578 52.4703C44.9446 63.8155 52.6168 75.9703 63.8594 76.1302C55.7653 78.9186 46.0258 75.7416 41.1536 66.6384C40.6401 65.6795 39.3592 65.6804 38.8464 66.6384C34.2917 75.1473 24.8317 79.1179 16.1697 76.1296C18.6857 76.0887 21.1029 75.41 23.2341 74.2587C23.8929 73.9028 24.1607 73.0358 23.8319 72.3222C23.5034 71.6085 22.7024 71.319 22.0437 71.6748C17.3417 74.2152 11.7607 73.6516 7.56172 70.0997C7.01572 69.6377 6.23338 69.7059 5.76238 70.2569C5.29155 70.8077 5.28905 71.6576 5.75672 72.2117C15.3284 83.554 31.9037 82.2377 39.9976 70.0228C47.9218 82.0648 64.5504 83.6975 74.243 72.2117C74.7106 71.6574 74.7081 70.8077 74.2373 70.2569C73.7663 69.7059 72.9839 69.6378 72.4379 70.0999C68.7088 73.2543 63.8334 74.094 59.3966 72.3449C52.3458 69.5658 48.6974 61.0932 51.2636 53.4579C53.1943 47.7135 58.1009 44.0558 63.4154 43.7791C63.6699 51.4206 60.8216 58.63 55.4869 63.7263C54.9348 64.2538 54.8819 65.1662 55.3691 65.7643C55.8561 66.3623 56.6989 66.4195 57.2509 65.8919C62.9336 60.4633 66.2898 52.5311 66.0874 43.9279C71.5948 44.8326 76.1511 49.2794 77.3624 55.4486C77.5066 56.183 78.1473 56.675 78.8341 56.5806C79.5218 56.4864 80.0281 55.8372 79.9988 55.0873C79.6195 45.3744 73.9241 36.9504 65.4893 33.6257ZM39.9794 36.76C44.0101 36.76 47.2891 40.311 47.2891 44.6756C47.2891 49.0402 44.0099 52.5912 39.9794 52.5912C35.9486 52.5912 32.6696 49.0402 32.6696 44.6756C32.6696 40.311 35.9487 36.76 39.9794 36.76ZM39.9794 39.6477C37.4192 39.6477 35.3362 41.9032 35.3362 44.6756C35.3362 47.448 37.4192 49.7035 39.9794 49.7035C42.5396 49.7035 44.6224 47.448 44.6224 44.6756C44.6224 41.9032 42.5397 39.6477 39.9794 39.6477Z" fill="black"/>
</svg>
